<svg width="20" height="20" viewBox="0 0 20 20" fill="none" xmlns="http://www.w3.org/2000/svg">
<path fill-rule="evenodd" clip-rule="evenodd" d="M10.0974 0.8796C9.86727 0.240667 8.95949 0.253179 8.74706 0.898215L7.07134 5.98496C6.97484 6.2779 6.7013 6.47583 6.39294 6.47583H0.854878C0.190432 6.47583 -0.114051 7.30375 0.392014 7.73443L5.09836 11.7395C5.3166 11.9252 5.40276 12.2234 5.31719 12.497L3.60078 17.9842C3.39655 18.6371 4.13808 19.176 4.69585 18.7802L9.21356 15.5735C9.46984 15.3916 9.81477 15.3986 10.0635 15.5907L14.4848 19.0056C15.0342 19.43 15.8048 18.9001 15.6056 18.235L13.8738 12.4546C13.7907 12.1771 13.8833 11.8768 14.1084 11.6945L18.9811 7.74536C19.504 7.3216 19.2044 6.47583 18.5314 6.47583H12.6153C12.3142 6.47583 12.0455 6.28693 11.9433 6.00358L10.0974 0.8796Z" fill="#111111"/>
</svg>
