<svg width="320" height="189" viewBox="0 0 320 189" fill="none" xmlns="http://www.w3.org/2000/svg">
<mask id="mask0_1_255" style="mask-type:luminance" maskUnits="userSpaceOnUse" x="0" y="0" width="320" height="189">
<path d="M320 0H0V189H320V0Z" fill="white"/>
</mask>
<g mask="url(#mask0_1_255)">
<path d="M131.403 155.379C131.852 152.682 132.247 150.46 132.595 148.194C133.514 142.217 134.439 136.253 135.317 130.236C135.511 128.846 136.092 134.774 137.613 134.946L145.429 131.143C147.123 130.068 148.106 129.862 149.364 127.322C150.344 125.355 150.707 122.703 150.75 119.932C150.886 101.094 150.825 101.158 150.818 82.2186C150.818 71.5884 144.507 60.2737 135.501 54.9282C123.337 47.6973 111.171 40.5972 99.0065 33.431L77.1018 21.1303C73.8329 19.2048 70.8295 19.4196 68.5613 19.967C66.2917 20.5144 59.6053 23.2111 59.6053 23.2111C58.7091 25.1262 61.7401 27.2431 61.7376 29.9049C61.6218 49.0211 61.6759 49.2346 61.6759 68.4272C61.6394 70.7512 62.0045 73.2952 62.7496 75.9078C63.4948 78.5203 64.6038 81.1459 66.011 83.629C67.4171 86.1122 69.0924 88.3987 70.9352 90.3539C72.778 92.3079 74.7505 93.8891 76.7343 95.002C93.4189 104.645 88.3248 101.226 105.038 110.983C105.761 111.372 106.481 111.952 107.147 112.681C107.813 113.408 108.406 114.264 108.884 115.188C115.869 127.864 123.396 160.17 123.396 160.17L131.403 155.379Z" fill="#FFD6BC"/>
<path d="M131.403 155.379C131.852 152.682 132.247 150.46 132.595 148.194C133.514 142.217 134.439 136.253 135.317 130.236C135.511 128.846 136.092 134.774 137.613 134.946L145.429 131.143C147.123 130.068 148.106 129.862 149.364 127.322C150.344 125.355 150.707 122.703 150.75 119.932C150.886 101.094 150.825 101.158 150.818 82.2186C150.818 71.5884 144.508 60.2737 135.501 54.9282C123.337 47.6973 111.171 40.5972 99.0065 33.431L77.1018 21.1303C73.8329 19.2048 70.8295 19.4196 68.5613 19.967C66.2917 20.5144 59.6053 23.2111 59.6053 23.2111C58.7091 25.1262 61.7401 27.2431 61.7376 29.9049C61.6218 49.0211 61.6759 49.2346 61.6759 68.4272C61.6394 70.7512 62.0045 73.2952 62.7496 75.9078C63.4948 78.5203 64.6038 81.1459 66.011 83.629C67.4171 86.1122 69.0924 88.3987 70.9352 90.3539C72.778 92.3079 74.7505 93.8891 76.7343 95.002C93.4189 104.645 88.3248 101.226 105.038 110.983C105.761 111.372 106.481 111.952 107.147 112.681C107.813 113.408 108.406 114.264 108.884 115.188C115.869 127.864 123.396 160.17 123.396 160.17L131.403 155.379Z" stroke="#1D1D1B" stroke-width="1.29574" stroke-linejoin="round"/>
<path d="M123.396 160.158C123.845 157.46 124.295 154.539 124.642 152.273C125.561 146.296 126.486 140.331 127.365 134.314C127.548 132.998 128.324 133.472 129.189 133.9C134.819 136.717 138.944 135.84 141.245 131.192C142.225 129.225 142.754 126.78 142.797 124.011C142.933 105.171 142.872 105.235 142.865 86.2951C142.865 75.6636 136.555 64.3489 127.548 59.0034C115.384 51.7725 103.218 44.6711 91.0537 37.5049L69.6702 25.3388C63.2582 21.5616 58.3428 21.7402 55.668 27.1737C54.7717 29.0888 54.3085 31.4516 54.306 34.1134C54.1902 53.2309 54.2443 53.4431 54.2443 72.6369C54.2078 74.9609 54.5729 77.5062 55.318 80.1188C56.0632 82.7314 57.1722 85.3582 58.5794 87.8401C59.9854 90.3233 61.6608 92.6097 63.5036 94.565C65.3464 96.5189 67.3189 98.1002 69.3027 99.213L97.0844 115.061C97.8081 115.45 98.5282 116.03 99.194 116.757C99.8586 117.486 100.453 118.342 100.931 119.266C107.916 131.942 114.975 144.583 122.034 157.24C122.32 157.715 123.396 160.158 123.396 160.158Z" fill="white"/>
<path d="M123.396 160.157L122.939 160.269C123.069 160.564 123.296 160.802 123.517 160.874C123.737 160.945 123.906 160.837 123.945 160.597L123.396 160.157ZM127.365 134.314L127.916 134.743V134.739L127.365 134.314ZM129.189 133.9L129.147 133.215L129.146 133.214L129.189 133.9ZM141.245 131.191L140.738 130.618H140.736L141.245 131.191ZM142.797 124.011L143.356 124.351V124.345L142.797 124.011ZM91.0537 37.5047V36.8435L91.0437 36.837L91.0537 37.5047ZM69.6702 25.3385V26.0011L69.6803 26.0062L69.6702 25.3385ZM55.668 27.1734L55.1582 26.6002L55.1557 26.6079L55.668 27.1734ZM54.306 34.1131L54.8636 34.447V34.4418L54.306 34.1131ZM54.2443 72.6367L54.8032 72.9783V72.9667L54.2443 72.6367ZM69.3027 99.2128L69.2939 98.5451L69.2901 98.5425L69.3027 99.2128ZM97.0844 115.06L97.0932 115.727L97.1083 115.735L97.0844 115.06ZM100.931 119.266L100.513 119.457L100.521 119.473L100.53 119.488L100.931 119.266ZM122.034 157.239L121.636 157.47L121.649 157.49L121.66 157.511L122.034 157.239ZM123.945 160.597C124.395 157.897 124.845 154.972 125.192 152.707L124.091 151.84C123.743 154.107 123.295 157.023 122.846 159.716L123.945 160.597ZM125.192 152.707C126.111 146.731 127.037 140.763 127.916 134.743L126.813 133.885C125.936 139.9 125.01 145.861 124.091 151.84L125.192 152.707ZM127.916 134.739C127.988 134.231 128.141 134.188 128.262 134.191C128.469 134.196 128.742 134.342 129.233 134.585L129.146 133.214C128.772 133.029 128.224 132.723 127.781 132.713C127.251 132.701 126.925 133.081 126.813 133.888L127.916 134.739ZM129.23 134.584C135.056 137.5 139.364 136.59 141.753 131.765L140.736 130.618C138.523 135.089 134.582 135.935 129.147 133.215L129.23 134.584ZM141.753 131.765C142.765 129.734 143.31 127.212 143.356 124.351L142.239 123.669C142.198 126.349 141.687 128.715 140.738 130.618L141.753 131.765ZM143.356 124.345C143.492 105.502 143.43 105.56 143.424 86.6235L142.307 85.9661C142.314 104.909 142.375 104.84 142.239 123.676L143.356 124.345ZM143.424 86.6235C143.424 81.1486 141.796 75.4602 138.98 70.4343C136.165 65.4071 132.189 61.0968 127.551 58.3432L127.546 59.6644C131.914 62.2562 135.597 66.2754 138.187 70.9001C140.779 75.5249 142.307 80.8096 142.307 85.9661L143.424 86.6235ZM127.551 58.3432C115.384 51.1111 103.214 44.007 91.0537 36.8435V38.1672C103.222 45.336 115.383 52.4348 127.546 59.6644L127.551 58.3432ZM91.0437 36.837L69.6614 24.6708L69.6803 26.0062L91.0625 38.1724L91.0437 36.837ZM69.6702 24.676C66.3899 22.7441 63.4545 21.802 60.9849 22.0647C58.5102 22.3274 56.5378 23.7974 55.1582 26.6002L56.1765 27.7454C57.4717 25.1147 59.2944 23.7793 61.5501 23.5386C63.8095 23.2979 66.5385 24.1545 69.6702 25.9998V24.676ZM55.1557 26.6079C54.2292 28.5891 53.7496 31.0308 53.7471 33.7832L54.8636 34.4418C54.8649 31.8706 55.313 29.5893 56.179 27.7389L55.1557 26.6079ZM53.7471 33.7793C53.6313 52.8994 53.6867 53.1168 53.6867 72.308L54.8032 72.9667C54.8032 53.7702 54.7478 53.5606 54.8636 34.447L53.7471 33.7793ZM53.6867 72.2964C53.6489 74.7084 54.0278 77.3507 54.8007 80.0629L55.8354 80.1742C55.1191 77.6613 54.768 75.213 54.8032 72.9783L53.6867 72.2964ZM54.8007 80.0629C55.5736 82.7751 56.7253 85.5016 58.1854 88.0779L58.9722 87.6018C57.619 85.213 56.5516 82.6871 55.8354 80.1742L54.8007 80.0629ZM58.1854 88.0779C59.6456 90.6556 61.3839 93.0301 63.2972 95.0578L63.7101 94.0704C61.9365 92.1903 60.3253 89.9905 58.9722 87.6018L58.1854 88.0779ZM63.2972 95.0578C65.2105 97.0867 67.2572 98.7275 69.3165 99.8818L69.2901 98.5425C67.3806 97.4724 65.4836 95.9519 63.7101 94.0704L63.2972 95.0578ZM69.3115 99.8792L97.0932 115.727L97.0756 114.393L69.2939 98.5451L69.3115 99.8792ZM97.1083 115.735C97.7477 116.08 98.3859 116.594 98.975 117.238L99.4118 116.277C98.6704 115.465 97.8673 114.82 97.0617 114.385L97.1083 115.735ZM98.975 117.238C99.5641 117.881 100.09 118.64 100.513 119.457L101.349 119.073C100.817 118.043 100.154 117.088 99.4118 116.277L98.975 117.238ZM100.53 119.488C107.517 132.17 114.578 144.814 121.636 157.47L122.432 157.01C115.373 144.351 108.315 131.714 101.333 119.042L100.53 119.488ZM121.66 157.511C121.66 157.511 121.661 157.512 121.663 157.514C121.664 157.516 121.665 157.52 121.668 157.524C121.673 157.533 121.68 157.545 121.688 157.56C121.705 157.593 121.726 157.633 121.751 157.682C121.801 157.78 121.861 157.903 121.929 158.047C122.064 158.332 122.221 158.672 122.373 159.003C122.524 159.334 122.665 159.651 122.769 159.886C122.822 160.002 122.865 160.099 122.894 160.165C122.909 160.199 122.92 160.225 122.928 160.243C122.931 160.252 122.935 160.258 122.936 160.262C122.938 160.265 122.939 160.267 122.939 160.269C122.939 160.269 122.939 160.269 123.396 160.157C123.852 160.045 123.852 160.045 123.852 160.045V160.042C123.85 160.041 123.85 160.04 123.849 160.037C123.847 160.032 123.844 160.025 123.839 160.015C123.831 159.997 123.82 159.97 123.804 159.936C123.774 159.868 123.731 159.769 123.678 159.65C123.571 159.411 123.426 159.087 123.271 158.748C123.118 158.411 122.953 158.052 122.807 157.745C122.672 157.462 122.521 157.157 122.408 156.969L121.66 157.511Z" fill="#1D1D1B"/>
<path d="M101.845 83.6316C102.921 84.4222 103.936 85.297 104.878 86.2481C109.592 91.0734 112.97 97.0943 114.663 103.694C115.033 105.192 115.292 106.715 115.438 108.252C115.42 108.528 115.42 108.805 115.438 109.081V109.355C114.887 109.06 114.377 108.691 113.923 108.256C112.329 107.014 110.868 105.605 109.561 104.052C107.405 101.487 105.582 98.6471 104.138 95.6037C102.757 92.7284 101.757 89.6785 101.161 86.5328C100.947 85.3565 100.803 84.1673 100.726 82.973C100.726 82.8591 100.726 82.8591 100.84 82.9251L101.845 83.6316Z" fill="#1D1D1B"/>
<path d="M114.795 75.9453C114.115 78.2616 112.928 80.0538 111.326 81.1847C110.09 82.0413 108.63 82.4981 107.137 82.4916C105.212 82.6016 103.09 82.0737 100.916 80.9505L100.801 80.8845C100.818 80.1599 100.895 79.4378 101.031 78.7261C101.72 74.6099 103.742 71.7308 106.718 70.6257C108.166 70.1107 109.722 69.9929 111.229 70.2854C112.391 70.464 113.521 70.8146 114.583 71.327L115.3 71.6389C115.507 71.7631 115.507 71.7631 115.507 72.0051C115.488 72.172 115.488 72.339 115.507 72.5059C115.395 73.6731 115.155 74.8234 114.791 75.935L114.795 75.9453Z" fill="#1D1D1B"/>
<path d="M97.5803 78.8972C95.9955 77.6369 94.5354 76.2225 93.22 74.671C91.167 72.2305 89.4274 69.5313 88.044 66.6392C85.8979 62.2487 84.624 57.6265 84.4415 53.4663L84.6492 53.5905L85.3642 54.1172C86.4178 54.8755 87.4134 55.7166 88.3411 56.6314C90.4331 58.7057 92.2608 61.0427 93.7814 63.5841C96.5179 68.1066 98.3431 73.1415 98.9397 77.8543C99.0153 78.5245 99.0732 79.1754 99.1122 79.8121C99.1122 79.8121 99.1122 79.9466 98.9976 79.8807L97.5803 78.8972Z" fill="#1D1D1B"/>
<path d="M85.9306 84.8134C86.8369 82.8556 88.4657 81.3429 90.4596 80.6118C92.9028 79.7332 95.8722 80.1188 98.9725 81.7104C98.9725 81.7104 99.1059 81.7906 99.087 81.8929C99.0706 82.4441 99.014 82.9941 98.9158 83.5362C98.7333 85.0929 98.2839 86.603 97.5891 88.0005C95.8281 91.4141 92.6989 93.0135 88.8673 92.4571C87.3618 92.197 85.9054 91.7039 84.546 90.9935C84.4491 90.934 84.4315 90.9237 84.4491 90.7994C84.4201 90.2508 84.4717 89.7008 84.6039 89.1677C84.804 87.6499 85.2522 86.1786 85.9306 84.8134Z" fill="#1D1D1B"/>
<path d="M182.317 182.893C181.868 180.196 181.473 177.974 181.125 175.708C180.206 169.731 179.281 163.767 178.403 157.75C178.209 156.361 177.628 162.288 176.107 162.461L168.291 158.657C166.597 157.582 165.614 157.376 164.356 154.836C163.376 152.869 163.013 150.217 162.97 147.446C162.834 128.608 162.895 128.672 162.902 109.733C162.902 99.1026 169.213 87.7879 178.219 82.4424C190.383 75.2128 202.549 68.1113 214.714 60.9452L236.618 48.6445C239.887 46.719 242.891 46.9338 245.159 47.4812C247.428 48.0285 254.115 50.7252 254.115 50.7252C255.011 52.6403 251.981 54.7573 251.982 57.4191C252.098 76.5353 252.044 76.7488 252.044 95.9413C252.081 98.2653 251.716 100.809 250.97 103.422C250.225 106.034 249.116 108.661 247.709 111.143C246.303 113.626 244.628 115.913 242.785 117.868C240.942 119.822 238.97 121.403 236.986 122.516C220.301 132.159 225.395 128.74 208.683 138.497C207.959 138.886 207.239 139.466 206.573 140.195C205.909 140.922 205.315 141.779 204.836 142.702C197.851 155.378 190.324 187.684 190.324 187.684L182.317 182.893Z" fill="#FFD6BC"/>
<path d="M182.317 182.893C181.868 180.196 181.473 177.974 181.125 175.708C180.206 169.731 179.281 163.767 178.403 157.75C178.209 156.361 177.628 162.288 176.107 162.46L168.291 158.657C166.597 157.582 165.614 157.376 164.356 154.836C163.376 152.869 163.013 150.217 162.97 147.446C162.834 128.608 162.895 128.672 162.902 109.733C162.902 99.1026 169.213 87.7879 178.219 82.4424C190.383 75.2128 202.549 68.1113 214.714 60.9452L236.618 48.6445C239.887 46.719 242.891 46.9338 245.159 47.4812C247.428 48.0285 254.115 50.7252 254.115 50.7252C255.011 52.6403 251.981 54.7573 251.982 57.4191C252.098 76.5353 252.044 76.7488 252.044 95.9413C252.081 98.2653 251.716 100.809 250.97 103.422C250.225 106.034 249.116 108.661 247.709 111.143C246.303 113.626 244.628 115.913 242.785 117.868C240.942 119.822 238.97 121.403 236.986 122.516C220.301 132.159 225.395 128.74 208.683 138.497C207.959 138.886 207.239 139.466 206.573 140.195C205.909 140.922 205.315 141.779 204.836 142.702C197.851 155.378 190.324 187.684 190.324 187.684L182.317 182.893Z" stroke="#1D1D1B" stroke-width="1.29574" stroke-linejoin="round"/>
<path d="M190.324 187.671C189.875 184.973 189.425 182.053 189.078 179.787C188.159 173.81 187.234 167.845 186.355 161.828C186.172 160.512 185.396 160.985 184.531 161.414C178.901 164.231 174.776 163.353 172.475 158.705C171.495 156.738 170.966 154.294 170.923 151.525C170.787 132.684 170.848 132.749 170.855 113.809C170.855 103.177 177.165 91.8638 186.172 86.5171C198.336 79.2862 210.502 72.1847 222.666 65.0186L244.05 52.8524C250.462 49.0753 255.377 49.2538 258.053 54.6873C258.95 56.6024 259.413 58.9653 259.414 61.627C259.53 80.7432 259.476 80.958 259.476 100.151C259.512 102.475 259.147 105.02 258.402 107.632C257.657 110.245 256.548 112.872 255.141 115.354C253.735 117.837 252.059 120.123 250.216 122.079C248.374 124.033 246.401 125.614 244.417 126.727L216.636 142.574C215.912 142.964 215.192 143.543 214.526 144.271C213.861 144.999 213.267 145.856 212.789 146.78C205.804 159.456 198.745 172.097 191.686 184.753C191.4 185.228 190.324 187.671 190.324 187.671Z" fill="white"/>
<path d="M190.324 187.672L190.781 187.783C190.651 188.078 190.424 188.316 190.203 188.388C189.984 188.46 189.814 188.351 189.775 188.112L190.324 187.672ZM186.355 161.828L185.804 162.257V162.254L186.355 161.828ZM184.531 161.414L184.573 160.729L184.574 160.728L184.531 161.414ZM172.475 158.705L172.982 158.132H172.984L172.475 158.705ZM170.923 151.525L170.364 151.865V151.859L170.923 151.525ZM222.666 65.0188V64.3576L222.676 64.3511L222.666 65.0188ZM244.05 52.8527V53.5152L244.04 53.5204L244.05 52.8527ZM258.053 54.6876L258.562 54.1143L258.564 54.1221L258.053 54.6876ZM259.414 61.6273L258.856 61.9611V61.956L259.414 61.6273ZM259.476 100.151L258.917 100.492V100.481L259.476 100.151ZM244.417 126.727L244.426 126.059L244.431 126.057L244.417 126.727ZM216.636 142.575L216.627 143.241L216.612 143.249L216.636 142.575ZM212.789 146.78L213.207 146.972L213.199 146.987L213.19 147.003L212.789 146.78ZM191.686 184.754L192.084 184.984L192.073 185.005L192.06 185.025L191.686 184.754ZM189.775 188.112C189.325 185.411 188.875 182.487 188.528 180.221L189.629 179.354C189.977 181.621 190.425 184.538 190.874 187.23L189.775 188.112ZM188.528 180.221C187.609 174.245 186.683 168.277 185.804 162.257L186.907 161.4C187.784 167.414 188.71 173.376 189.629 179.354L188.528 180.221ZM185.804 162.254C185.732 161.745 185.579 161.702 185.458 161.705C185.251 161.71 184.978 161.856 184.487 162.1L184.574 160.728C184.948 160.543 185.496 160.238 185.939 160.227C186.469 160.216 186.795 160.595 186.908 161.402L185.804 162.254ZM184.49 162.098C178.664 165.014 174.356 164.104 171.967 159.279L172.984 158.132C175.197 162.603 179.138 163.449 184.573 160.729L184.49 162.098ZM171.967 159.279C170.955 157.248 170.41 154.726 170.364 151.865L171.481 151.183C171.522 153.863 172.033 156.229 172.982 158.132L171.967 159.279ZM170.364 151.859C170.228 133.016 170.29 133.074 170.296 114.138L171.413 113.48C171.407 132.423 171.345 132.355 171.481 151.19L170.364 151.859ZM170.296 114.138C170.296 108.663 171.924 102.976 174.74 97.9485C177.555 92.9226 181.531 88.611 186.169 85.8574L186.174 87.1785C181.806 89.7704 178.123 93.7896 175.533 98.4143C172.941 103.039 171.413 108.324 171.413 113.48L170.296 114.138ZM186.169 85.8574C198.336 78.6252 210.506 71.5212 222.666 64.3576V65.6814C210.498 72.8501 198.337 79.949 186.174 87.1785L186.169 85.8574ZM222.676 64.3511L244.06 52.185L244.04 53.5204L222.657 65.6866L222.676 64.3511ZM244.05 52.1902C247.33 50.2582 250.265 49.3162 252.735 49.5789C255.21 49.8416 257.181 51.3115 258.562 54.1143L257.544 55.2595C256.25 52.6288 254.426 51.2934 252.17 51.0527C249.911 50.8121 247.182 51.67 244.05 53.5152V52.1902ZM258.564 54.1221C259.491 56.1032 259.97 58.545 259.973 61.2973L258.856 61.956C258.854 59.3848 258.407 57.1035 257.541 55.2531L258.564 54.1221ZM259.973 61.2934C260.089 80.4135 260.033 80.6322 260.033 99.8222L258.917 100.481C258.917 81.2844 258.972 81.0748 258.856 61.9611L259.973 61.2934ZM260.033 99.8105C260.071 102.223 259.692 104.865 258.919 107.577L257.885 107.688C258.601 105.175 258.952 102.727 258.917 100.492L260.033 99.8105ZM258.919 107.577C258.145 110.289 256.995 113.016 255.535 115.592L254.748 115.116C256.101 112.727 257.168 110.201 257.885 107.688L258.919 107.577ZM255.535 115.592C254.074 118.17 252.335 120.544 250.423 122.572L250.01 121.585C251.784 119.704 253.395 117.505 254.748 115.116L255.535 115.592ZM250.423 122.572C248.51 124.601 246.463 126.242 244.405 127.396L244.431 126.057C246.339 124.987 248.236 123.466 250.01 121.585L250.423 122.572ZM244.409 127.393L216.627 143.241L216.644 141.907L244.426 126.059L244.409 127.393ZM216.612 143.249C215.972 143.594 215.334 144.108 214.745 144.752L214.308 143.791C215.05 142.98 215.853 142.334 216.658 141.899L216.612 143.249ZM214.745 144.752C214.156 145.395 213.631 146.154 213.207 146.972L212.371 146.587C212.903 145.557 213.566 144.602 214.308 143.791L214.745 144.752ZM213.19 147.003C206.203 159.684 199.142 172.329 192.084 184.984L191.288 184.525C198.349 171.865 205.405 159.228 212.387 146.556L213.19 147.003ZM192.06 185.025C192.06 185.025 192.059 185.027 192.057 185.028C192.056 185.031 192.055 185.034 192.052 185.038C192.047 185.047 192.04 185.059 192.032 185.075C192.016 185.107 191.995 185.147 191.969 185.196C191.919 185.294 191.859 185.417 191.791 185.561C191.656 185.846 191.499 186.186 191.348 186.517C191.196 186.849 191.055 187.166 190.951 187.4C190.898 187.516 190.855 187.613 190.826 187.679C190.811 187.713 190.8 187.739 190.792 187.757C190.789 187.766 190.785 187.773 190.784 187.776C190.782 187.779 190.782 187.782 190.781 187.783C190.781 187.783 190.781 187.783 190.324 187.672C189.868 187.559 189.868 187.559 189.868 187.559V187.556C189.87 187.555 189.87 187.554 189.871 187.551C189.874 187.546 189.876 187.54 189.881 187.529C189.889 187.511 189.901 187.484 189.916 187.45C189.947 187.382 189.989 187.283 190.043 187.164C190.149 186.925 190.294 186.601 190.449 186.262C190.602 185.925 190.767 185.566 190.913 185.26C191.048 184.976 191.199 184.671 191.312 184.483L192.06 185.025Z" fill="#1D1D1B"/>
<path d="M191.315 106.255C191.713 106.152 192.022 106.041 192.32 105.987C194.57 105.587 196.074 106.492 196.686 108.858C197.149 110.649 196.955 112.776 195.995 115.186C195.034 117.595 193.592 119.527 191.823 121.039C190.168 122.484 188.423 123.189 186.968 123.002C185.455 122.837 184.535 121.763 184.013 120.121C183.425 118.275 183.42 116.048 183.79 113.59C184.272 110.289 185.469 106.792 187.243 103.504C189.296 99.6644 191.845 96.5497 194.796 94.0588C194.99 93.8945 195.082 93.8906 195.161 94.0549C195.481 94.7071 195.806 95.3541 196.145 95.9843C196.255 96.1978 196.224 96.3479 195.972 96.6274C193.987 98.8233 192.523 101.335 191.736 104.211C191.545 104.892 191.456 105.552 191.315 106.255Z" fill="#FFEADD"/>
<path d="M191.315 106.255C191.713 106.152 192.022 106.041 192.32 105.987C194.57 105.587 196.074 106.492 196.686 108.858C197.149 110.649 196.955 112.776 195.995 115.186C195.034 117.595 193.592 119.527 191.823 121.039C190.168 122.484 188.423 123.189 186.968 123.002C185.455 122.837 184.535 121.763 184.013 120.121C183.425 118.275 183.42 116.048 183.79 113.59C184.272 110.289 185.469 106.792 187.243 103.504C189.296 99.6644 191.845 96.5497 194.796 94.0588C194.99 93.8945 195.082 93.8906 195.161 94.0549C195.481 94.7071 195.806 95.3541 196.145 95.9843C196.255 96.1978 196.224 96.3479 195.972 96.6274C193.987 98.8233 192.523 101.335 191.736 104.211C191.545 104.892 191.456 105.552 191.315 106.255Z" stroke="#1D1D1B" stroke-width="1.29574" stroke-linejoin="round"/>
<path d="M208.937 98.4906C209.335 98.3883 209.645 98.277 209.943 98.2227C212.192 97.8229 213.697 98.7274 214.308 101.094C214.772 102.885 214.578 105.012 213.617 107.422C212.657 109.831 211.214 111.763 209.446 113.274C207.791 114.72 206.046 115.425 204.591 115.237C203.078 115.073 202.158 113.999 201.635 112.357C201.047 110.51 201.042 108.284 201.412 105.826C201.895 102.525 203.092 99.0276 204.865 95.7395C206.918 91.9002 209.467 88.7856 212.419 86.2946C212.613 86.1303 212.705 86.1264 212.784 86.2908C213.104 86.9429 213.428 87.5899 213.767 88.2201C213.878 88.4336 213.846 88.5837 213.595 88.8632C211.61 91.0591 210.146 93.5708 209.359 96.4473C209.168 97.128 209.078 97.7879 208.937 98.4906Z" fill="#FFEADD"/>
<path d="M208.937 98.4906C209.335 98.3883 209.645 98.277 209.943 98.2227C212.192 97.8229 213.697 98.7274 214.308 101.094C214.772 102.885 214.578 105.012 213.617 107.422C212.657 109.831 211.214 111.763 209.446 113.274C207.791 114.72 206.046 115.425 204.591 115.237C203.078 115.073 202.158 113.999 201.635 112.357C201.047 110.51 201.042 108.284 201.412 105.826C201.895 102.525 203.092 99.0276 204.865 95.7395C206.918 91.9002 209.467 88.7856 212.419 86.2946C212.613 86.1303 212.705 86.1264 212.784 86.2908C213.104 86.9429 213.428 87.5899 213.767 88.2201C213.878 88.4336 213.846 88.5837 213.595 88.8632C211.61 91.0591 210.146 93.5708 209.359 96.4473C209.168 97.128 209.078 97.7879 208.937 98.4906Z" stroke="#1D1D1B" stroke-width="1.29574" stroke-linejoin="round"/>
<path d="M186.012 137.431L235.575 107.345L186.012 137.431Z" fill="#D4C8FB"/>
<path d="M186.012 137.431L235.575 107.345" stroke="#1D1D1B" stroke-width="3.16653" stroke-linecap="round" stroke-linejoin="round"/>
<path d="M185.854 146.003L216.93 126.513L185.854 146.003Z" fill="#D4C8FB"/>
<path d="M185.854 146.003L216.93 126.513" stroke="#1D1D1B" stroke-width="3.16653" stroke-linecap="round" stroke-linejoin="round"/>
</g>
</svg>
